<svg width="355" height="72" viewBox="0 0 355 72" fill="none" xmlns="http://www.w3.org/2000/svg">
<path d="M88.072 38V18.12H91.936V38H88.072ZM100.508 25.26V38H96.6437V18.12H99.6397L110 31.168V18.148H113.864V38H110.728L100.508 25.26ZM132.363 35.76C130.777 37.3467 128.929 38.14 126.819 38.14C125.513 38.14 124.281 37.8787 123.123 37.356C121.985 36.8333 120.986 36.1147 120.127 35.2C119.287 34.2853 118.615 33.212 118.111 31.98C117.626 30.7293 117.383 29.3853 117.383 27.948C117.383 26.5853 117.626 25.3067 118.111 24.112C118.615 22.8987 119.297 21.844 120.155 20.948C121.033 20.0333 122.059 19.3147 123.235 18.792C124.411 18.2507 125.69 17.98 127.071 17.98C128.938 17.98 130.534 18.372 131.859 19.156C133.203 19.94 134.211 20.9947 134.883 22.32L131.999 24.448C131.495 23.4587 130.786 22.7027 129.871 22.18C128.975 21.6573 127.995 21.396 126.931 21.396C126.091 21.396 125.317 21.5733 124.607 21.928C123.917 22.2827 123.319 22.768 122.815 23.384C122.33 24 121.947 24.7093 121.667 25.512C121.406 26.3147 121.275 27.164 121.275 28.06C121.275 28.9933 121.425 29.8707 121.723 30.692C122.022 31.4947 122.433 32.1947 122.955 32.792C123.478 33.3893 124.094 33.8653 124.803 34.22C125.531 34.556 126.315 34.724 127.155 34.724C129.078 34.724 130.814 33.8187 132.363 32.008V30.608H128.359V27.78H135.555V38H132.363V35.76ZM139.408 38V18.12H148.2C149.115 18.12 149.955 18.316 150.72 18.708C151.504 19.0813 152.176 19.5853 152.736 20.22C153.296 20.836 153.735 21.5453 154.052 22.348C154.37 23.132 154.528 23.9253 154.528 24.728C154.528 26.016 154.202 27.192 153.548 28.256C152.914 29.3013 152.046 30.0573 150.944 30.524L155.48 38H151.14L147.08 31.336H143.272V38H139.408ZM143.272 27.948H148.116C148.471 27.948 148.798 27.864 149.096 27.696C149.414 27.528 149.684 27.304 149.908 27.024C150.132 26.7253 150.31 26.38 150.44 25.988C150.571 25.596 150.636 25.176 150.636 24.728C150.636 24.2613 150.562 23.832 150.412 23.44C150.263 23.048 150.058 22.712 149.796 22.432C149.554 22.1333 149.264 21.9093 148.928 21.76C148.611 21.592 148.284 21.508 147.948 21.508H143.272V27.948ZM172.393 34.612V38H158.589V18.12H172.141V21.508H162.453V26.296H170.825V29.432H162.453V34.612H172.393ZM187.4 23.328C187.269 23.1973 187.026 23.02 186.672 22.796C186.336 22.572 185.916 22.3573 185.412 22.152C184.926 21.928 184.394 21.7413 183.816 21.592C183.237 21.4427 182.649 21.368 182.052 21.368C180.988 21.368 180.194 21.564 179.672 21.956C179.149 22.348 178.888 22.8987 178.888 23.608C178.888 24.0187 178.981 24.364 179.168 24.644C179.373 24.9053 179.662 25.1387 180.036 25.344C180.409 25.5493 180.876 25.736 181.436 25.904C182.014 26.072 182.677 26.2493 183.424 26.436C184.394 26.6973 185.272 26.9773 186.056 27.276C186.858 27.5747 187.53 27.948 188.072 28.396C188.632 28.844 189.061 29.3853 189.36 30.02C189.658 30.636 189.808 31.4013 189.808 32.316C189.808 33.38 189.602 34.2947 189.192 35.06C188.8 35.8067 188.258 36.4133 187.568 36.88C186.896 37.3467 186.112 37.692 185.216 37.916C184.338 38.1213 183.414 38.224 182.444 38.224C180.95 38.224 179.476 38 178.02 37.552C176.564 37.104 175.257 36.4693 174.1 35.648L175.808 32.316C175.976 32.484 176.274 32.708 176.704 32.988C177.152 33.2493 177.674 33.52 178.272 33.8C178.869 34.0613 179.532 34.2853 180.26 34.472C180.988 34.6587 181.734 34.752 182.5 34.752C184.628 34.752 185.692 34.0707 185.692 32.708C185.692 32.2787 185.57 31.9147 185.328 31.616C185.085 31.3173 184.74 31.056 184.292 30.832C183.844 30.608 183.302 30.4027 182.668 30.216C182.033 30.0293 181.324 29.824 180.54 29.6C179.588 29.3387 178.757 29.0587 178.048 28.76C177.357 28.4427 176.778 28.0787 176.312 27.668C175.845 27.2387 175.49 26.7533 175.248 26.212C175.024 25.652 174.912 24.9893 174.912 24.224C174.912 23.216 175.098 22.32 175.472 21.536C175.845 20.752 176.358 20.0987 177.012 19.576C177.684 19.0533 178.458 18.6613 179.336 18.4C180.213 18.12 181.156 17.98 182.164 17.98C183.564 17.98 184.852 18.204 186.028 18.652C187.204 19.0813 188.23 19.5947 189.108 20.192L187.4 23.328ZM205.131 23.328C205.001 23.1973 204.758 23.02 204.403 22.796C204.067 22.572 203.647 22.3573 203.143 22.152C202.658 21.928 202.126 21.7413 201.547 21.592C200.969 21.4427 200.381 21.368 199.783 21.368C198.719 21.368 197.926 21.564 197.403 21.956C196.881 22.348 196.619 22.8987 196.619 23.608C196.619 24.0187 196.713 24.364 196.899 24.644C197.105 24.9053 197.394 25.1387 197.767 25.344C198.141 25.5493 198.607 25.736 199.167 25.904C199.746 26.072 200.409 26.2493 201.155 26.436C202.126 26.6973 203.003 26.9773 203.787 27.276C204.59 27.5747 205.262 27.948 205.803 28.396C206.363 28.844 206.793 29.3853 207.091 30.02C207.39 30.636 207.539 31.4013 207.539 32.316C207.539 33.38 207.334 34.2947 206.923 35.06C206.531 35.8067 205.99 36.4133 205.299 36.88C204.627 37.3467 203.843 37.692 202.947 37.916C202.07 38.1213 201.146 38.224 200.175 38.224C198.682 38.224 197.207 38 195.751 37.552C194.295 37.104 192.989 36.4693 191.831 35.648L193.539 32.316C193.707 32.484 194.006 32.708 194.435 32.988C194.883 33.2493 195.406 33.52 196.003 33.8C196.601 34.0613 197.263 34.2853 197.991 34.472C198.719 34.6587 199.466 34.752 200.231 34.752C202.359 34.752 203.423 34.0707 203.423 32.708C203.423 32.2787 203.302 31.9147 203.059 31.616C202.817 31.3173 202.471 31.056 202.023 30.832C201.575 30.608 201.034 30.4027 200.399 30.216C199.765 30.0293 199.055 29.824 198.271 29.6C197.319 29.3387 196.489 29.0587 195.779 28.76C195.089 28.4427 194.51 28.0787 194.043 27.668C193.577 27.2387 193.222 26.7533 192.979 26.212C192.755 25.652 192.643 24.9893 192.643 24.224C192.643 23.216 192.83 22.32 193.203 21.536C193.577 20.752 194.09 20.0987 194.743 19.576C195.415 19.0533 196.19 18.6613 197.067 18.4C197.945 18.12 198.887 17.98 199.895 17.98C201.295 17.98 202.583 18.204 203.759 18.652C204.935 19.0813 205.962 19.5947 206.839 20.192L205.131 23.328Z" fill="white"/>
<path d="M223.962 18.12H227.378L234.938 38H230.962L229.114 33.044H222.17L220.35 38H216.374L223.962 18.12ZM228.414 30.328L225.67 22.516L222.814 30.328H228.414ZM235.736 27.92C235.736 26.7067 235.951 25.512 236.38 24.336C236.828 23.1413 237.472 22.0773 238.312 21.144C239.152 20.2107 240.179 19.4547 241.392 18.876C242.605 18.2973 243.987 18.008 245.536 18.008C247.365 18.008 248.943 18.4093 250.268 19.212C251.612 20.0147 252.611 21.06 253.264 22.348L250.296 24.392C250.035 23.832 249.717 23.3653 249.344 22.992C248.971 22.6 248.569 22.292 248.14 22.068C247.711 21.844 247.263 21.6853 246.796 21.592C246.329 21.48 245.872 21.424 245.424 21.424C244.453 21.424 243.604 21.62 242.876 22.012C242.167 22.404 241.569 22.9173 241.084 23.552C240.617 24.168 240.263 24.8773 240.02 25.68C239.777 26.464 239.656 27.248 239.656 28.032C239.656 28.9093 239.796 29.7587 240.076 30.58C240.356 31.3827 240.748 32.092 241.252 32.708C241.775 33.324 242.391 33.8187 243.1 34.192C243.828 34.5653 244.621 34.752 245.48 34.752C245.928 34.752 246.395 34.696 246.88 34.584C247.365 34.472 247.823 34.2947 248.252 34.052C248.7 33.8093 249.111 33.5013 249.484 33.128C249.857 32.736 250.156 32.2693 250.38 31.728L253.544 33.548C253.227 34.2947 252.769 34.9573 252.172 35.536C251.593 36.096 250.931 36.572 250.184 36.964C249.456 37.356 248.672 37.6547 247.832 37.86C246.992 38.0653 246.171 38.168 245.368 38.168C243.949 38.168 242.652 37.8693 241.476 37.272C240.3 36.6747 239.283 35.9 238.424 34.948C237.584 33.9773 236.921 32.8853 236.436 31.672C235.969 30.44 235.736 29.1893 235.736 27.92ZM262.078 18.12H265.494L273.054 38H269.078L267.23 33.044H260.286L258.466 38H254.49L262.078 18.12ZM266.53 30.328L263.786 22.516L260.93 30.328H266.53ZM275.795 38V18.12H283.019C284.643 18.12 286.061 18.3813 287.275 18.904C288.507 19.4267 289.533 20.136 290.355 21.032C291.176 21.928 291.792 22.9827 292.203 24.196C292.613 25.3907 292.819 26.6693 292.819 28.032C292.819 29.544 292.585 30.916 292.119 32.148C291.671 33.3613 291.017 34.4067 290.159 35.284C289.3 36.1427 288.264 36.8147 287.051 37.3C285.856 37.7667 284.512 38 283.019 38H275.795ZM288.927 28.032C288.927 27.08 288.796 26.2027 288.535 25.4C288.273 24.5973 287.891 23.9067 287.387 23.328C286.883 22.7493 286.257 22.3013 285.511 21.984C284.783 21.6667 283.952 21.508 283.019 21.508H279.659V34.612H283.019C283.971 34.612 284.811 34.444 285.539 34.108C286.285 33.772 286.901 33.3147 287.387 32.736C287.891 32.1387 288.273 31.4387 288.535 30.636C288.796 29.8333 288.927 28.9653 288.927 28.032ZM310.201 34.612V38H296.397V18.12H309.949V21.508H300.261V26.296H308.633V29.432H300.261V34.612H310.201ZM329.986 38V24.84L324.862 34.64H322.762L317.638 24.84V38H313.774V18.12H317.918L323.798 29.432L329.734 18.12H333.85V38H329.986ZM340.8 18.12L345.7 27.696L350.684 18.12H354.856L347.632 31.056V38H343.796V31L336.6 18.12H340.8Z" fill="#3F79FF"/>
<path d="M89.624 56.12C89.152 56.12 88.72 56.036 88.328 55.868C87.936 55.692 87.6 55.456 87.32 55.16C87.04 54.864 86.82 54.52 86.66 54.128C86.508 53.728 86.432 53.308 86.432 52.868C86.432 52.428 86.508 52.012 86.66 51.62C86.82 51.228 87.04 50.884 87.32 50.588C87.608 50.292 87.948 50.06 88.34 49.892C88.732 49.716 89.164 49.628 89.636 49.628C90.108 49.628 90.536 49.716 90.92 49.892C91.312 50.068 91.644 50.304 91.916 50.6C92.188 50.888 92.396 51.228 92.54 51.62C92.692 52.004 92.768 52.404 92.768 52.82C92.768 52.908 92.764 52.988 92.756 53.06C92.756 53.132 92.752 53.188 92.744 53.228H87.548C87.572 53.54 87.644 53.824 87.764 54.08C87.884 54.336 88.04 54.556 88.232 54.74C88.424 54.924 88.64 55.068 88.88 55.172C89.128 55.276 89.388 55.328 89.66 55.328C89.852 55.328 90.04 55.304 90.224 55.256C90.408 55.2 90.58 55.128 90.74 55.04C90.9 54.952 91.04 54.844 91.16 54.716C91.288 54.588 91.384 54.444 91.448 54.284L92.36 54.536C92.256 54.768 92.112 54.98 91.928 55.172C91.752 55.364 91.544 55.532 91.304 55.676C91.072 55.812 90.812 55.92 90.524 56C90.236 56.08 89.936 56.12 89.624 56.12ZM91.772 52.448C91.748 52.152 91.672 51.88 91.544 51.632C91.424 51.376 91.268 51.16 91.076 50.984C90.892 50.808 90.676 50.672 90.428 50.576C90.18 50.472 89.916 50.42 89.636 50.42C89.356 50.42 89.092 50.472 88.844 50.576C88.596 50.672 88.376 50.812 88.184 50.996C88 51.172 87.848 51.384 87.728 51.632C87.616 51.88 87.548 52.152 87.524 52.448H91.772ZM108.666 56H107.61V52.496C107.61 51.84 107.502 51.356 107.286 51.044C107.078 50.732 106.766 50.576 106.35 50.576C105.918 50.576 105.53 50.732 105.186 51.044C104.85 51.348 104.61 51.744 104.466 52.232V56H103.41V52.496C103.41 51.824 103.306 51.336 103.098 51.032C102.89 50.728 102.578 50.576 102.162 50.576C101.738 50.576 101.354 50.728 101.01 51.032C100.666 51.328 100.422 51.724 100.278 52.22V56H99.2218V49.736H100.182V51.08C100.438 50.616 100.77 50.26 101.178 50.012C101.586 49.756 102.046 49.628 102.558 49.628C103.086 49.628 103.502 49.772 103.806 50.06C104.118 50.34 104.31 50.704 104.382 51.152C104.942 50.136 105.738 49.628 106.77 49.628C107.13 49.628 107.43 49.696 107.67 49.832C107.918 49.96 108.114 50.144 108.258 50.384C108.402 50.616 108.506 50.892 108.57 51.212C108.634 51.532 108.666 51.88 108.666 52.256V56ZM118.96 56.12C118.44 56.12 117.98 55.992 117.58 55.736C117.188 55.48 116.876 55.156 116.644 54.764V58.556H115.588V49.736H116.524V50.912C116.772 50.528 117.092 50.22 117.484 49.988C117.884 49.748 118.324 49.628 118.804 49.628C119.236 49.628 119.632 49.716 119.992 49.892C120.352 50.068 120.664 50.308 120.928 50.612C121.192 50.908 121.396 51.252 121.54 51.644C121.692 52.036 121.768 52.444 121.768 52.868C121.768 53.316 121.7 53.74 121.564 54.14C121.428 54.532 121.236 54.876 120.988 55.172C120.74 55.46 120.444 55.692 120.1 55.868C119.756 56.036 119.376 56.12 118.96 56.12ZM118.636 55.208C118.948 55.208 119.228 55.144 119.476 55.016C119.732 54.88 119.948 54.704 120.124 54.488C120.308 54.264 120.448 54.012 120.544 53.732C120.64 53.452 120.688 53.164 120.688 52.868C120.688 52.556 120.632 52.26 120.52 51.98C120.408 51.692 120.256 51.444 120.064 51.236C119.872 51.02 119.644 50.852 119.38 50.732C119.124 50.604 118.844 50.54 118.54 50.54C118.348 50.54 118.148 50.58 117.94 50.66C117.74 50.732 117.548 50.832 117.364 50.96C117.188 51.08 117.032 51.228 116.896 51.404C116.768 51.572 116.684 51.752 116.644 51.944V53.732C116.732 53.94 116.844 54.136 116.98 54.32C117.116 54.496 117.272 54.652 117.448 54.788C117.624 54.916 117.812 55.02 118.012 55.1C118.212 55.172 118.42 55.208 118.636 55.208ZM131.08 56.12C130.608 56.12 130.176 56.032 129.784 55.856C129.4 55.68 129.068 55.444 128.788 55.148C128.516 54.852 128.304 54.508 128.152 54.116C128 53.724 127.924 53.312 127.924 52.88C127.924 52.44 128 52.024 128.152 51.632C128.312 51.24 128.528 50.896 128.8 50.6C129.08 50.304 129.412 50.068 129.796 49.892C130.188 49.716 130.616 49.628 131.08 49.628C131.544 49.628 131.972 49.716 132.364 49.892C132.756 50.068 133.088 50.304 133.36 50.6C133.64 50.896 133.856 51.24 134.008 51.632C134.168 52.024 134.248 52.44 134.248 52.88C134.248 53.312 134.172 53.724 134.02 54.116C133.868 54.508 133.652 54.852 133.372 55.148C133.092 55.444 132.756 55.68 132.364 55.856C131.98 56.032 131.552 56.12 131.08 56.12ZM129.004 52.892C129.004 53.22 129.056 53.524 129.16 53.804C129.272 54.084 129.42 54.328 129.604 54.536C129.796 54.744 130.016 54.908 130.264 55.028C130.52 55.148 130.792 55.208 131.08 55.208C131.368 55.208 131.636 55.148 131.884 55.028C132.14 54.908 132.364 54.744 132.556 54.536C132.748 54.32 132.896 54.072 133 53.792C133.112 53.504 133.168 53.196 133.168 52.868C133.168 52.548 133.112 52.248 133 51.968C132.896 51.68 132.748 51.432 132.556 51.224C132.364 51.008 132.14 50.84 131.884 50.72C131.636 50.6 131.368 50.54 131.08 50.54C130.792 50.54 130.52 50.604 130.264 50.732C130.016 50.852 129.796 51.02 129.604 51.236C129.42 51.444 129.272 51.692 129.16 51.98C129.056 52.26 129.004 52.564 129.004 52.892ZM148.445 49.736H149.465L146.801 56H145.925L144.665 52.94L143.417 56H142.541L139.877 49.736H140.885L143.045 54.956L144.101 52.352L143.021 49.748H143.897L144.665 51.752L145.433 49.748H146.309L145.241 52.352L146.297 54.956L148.445 49.736ZM158.294 56.12C157.822 56.12 157.39 56.036 156.998 55.868C156.606 55.692 156.27 55.456 155.99 55.16C155.71 54.864 155.49 54.52 155.33 54.128C155.178 53.728 155.102 53.308 155.102 52.868C155.102 52.428 155.178 52.012 155.33 51.62C155.49 51.228 155.71 50.884 155.99 50.588C156.278 50.292 156.618 50.06 157.01 49.892C157.402 49.716 157.834 49.628 158.306 49.628C158.778 49.628 159.206 49.716 159.59 49.892C159.982 50.068 160.314 50.304 160.586 50.6C160.858 50.888 161.066 51.228 161.21 51.62C161.362 52.004 161.438 52.404 161.438 52.82C161.438 52.908 161.434 52.988 161.426 53.06C161.426 53.132 161.422 53.188 161.414 53.228H156.218C156.242 53.54 156.314 53.824 156.434 54.08C156.554 54.336 156.71 54.556 156.902 54.74C157.094 54.924 157.31 55.068 157.55 55.172C157.798 55.276 158.058 55.328 158.33 55.328C158.522 55.328 158.71 55.304 158.894 55.256C159.078 55.2 159.25 55.128 159.41 55.04C159.57 54.952 159.71 54.844 159.83 54.716C159.958 54.588 160.054 54.444 160.118 54.284L161.03 54.536C160.926 54.768 160.782 54.98 160.598 55.172C160.422 55.364 160.214 55.532 159.974 55.676C159.742 55.812 159.482 55.92 159.194 56C158.906 56.08 158.606 56.12 158.294 56.12ZM160.442 52.448C160.418 52.152 160.342 51.88 160.214 51.632C160.094 51.376 159.938 51.16 159.746 50.984C159.562 50.808 159.346 50.672 159.098 50.576C158.85 50.472 158.586 50.42 158.306 50.42C158.026 50.42 157.762 50.472 157.514 50.576C157.266 50.672 157.046 50.812 156.854 50.996C156.67 51.172 156.518 51.384 156.398 51.632C156.286 51.88 156.218 52.152 156.194 52.448H160.442ZM171.203 50.66C170.675 50.676 170.207 50.812 169.799 51.068C169.399 51.324 169.115 51.68 168.947 52.136V56H167.891V49.736H168.875V51.188C169.091 50.756 169.375 50.408 169.727 50.144C170.079 49.872 170.455 49.72 170.855 49.688C170.935 49.688 171.003 49.688 171.059 49.688C171.115 49.688 171.163 49.692 171.203 49.7V50.66ZM180.162 56.12C179.69 56.12 179.258 56.036 178.866 55.868C178.474 55.692 178.138 55.456 177.858 55.16C177.578 54.864 177.358 54.52 177.198 54.128C177.046 53.728 176.97 53.308 176.97 52.868C176.97 52.428 177.046 52.012 177.198 51.62C177.358 51.228 177.578 50.884 177.858 50.588C178.146 50.292 178.486 50.06 178.878 49.892C179.27 49.716 179.702 49.628 180.174 49.628C180.646 49.628 181.074 49.716 181.458 49.892C181.85 50.068 182.182 50.304 182.454 50.6C182.726 50.888 182.934 51.228 183.078 51.62C183.23 52.004 183.306 52.404 183.306 52.82C183.306 52.908 183.302 52.988 183.294 53.06C183.294 53.132 183.29 53.188 183.282 53.228H178.086C178.11 53.54 178.182 53.824 178.302 54.08C178.422 54.336 178.578 54.556 178.77 54.74C178.962 54.924 179.178 55.068 179.418 55.172C179.666 55.276 179.926 55.328 180.198 55.328C180.39 55.328 180.578 55.304 180.762 55.256C180.946 55.2 181.118 55.128 181.278 55.04C181.438 54.952 181.578 54.844 181.698 54.716C181.826 54.588 181.922 54.444 181.986 54.284L182.898 54.536C182.794 54.768 182.65 54.98 182.466 55.172C182.29 55.364 182.082 55.532 181.842 55.676C181.61 55.812 181.35 55.92 181.062 56C180.774 56.08 180.474 56.12 180.162 56.12ZM182.31 52.448C182.286 52.152 182.21 51.88 182.082 51.632C181.962 51.376 181.806 51.16 181.614 50.984C181.43 50.808 181.214 50.672 180.966 50.576C180.718 50.472 180.454 50.42 180.174 50.42C179.894 50.42 179.63 50.472 179.382 50.576C179.134 50.672 178.914 50.812 178.722 50.996C178.538 51.172 178.386 51.384 178.266 51.632C178.154 51.88 178.086 52.152 178.062 52.448H182.31ZM192.34 56.12C191.908 56.12 191.508 56.032 191.14 55.856C190.772 55.68 190.456 55.444 190.192 55.148C189.928 54.852 189.72 54.508 189.568 54.116C189.424 53.724 189.352 53.312 189.352 52.88C189.352 52.44 189.42 52.024 189.556 51.632C189.7 51.232 189.896 50.884 190.144 50.588C190.4 50.292 190.7 50.06 191.044 49.892C191.396 49.716 191.78 49.628 192.196 49.628C192.7 49.628 193.148 49.76 193.54 50.024C193.94 50.288 194.256 50.608 194.488 50.984V47.24H195.544V54.704C195.544 54.952 195.656 55.08 195.88 55.088V56C195.768 56.016 195.676 56.028 195.604 56.036C195.54 56.044 195.476 56.048 195.412 56.048C195.204 56.048 195.02 55.98 194.86 55.844C194.708 55.7 194.632 55.536 194.632 55.352V54.824C194.384 55.232 194.052 55.552 193.636 55.784C193.228 56.008 192.796 56.12 192.34 56.12ZM192.592 55.208C192.784 55.208 192.98 55.172 193.18 55.1C193.388 55.028 193.58 54.928 193.756 54.8C193.94 54.672 194.096 54.524 194.224 54.356C194.36 54.18 194.448 53.996 194.488 53.804V52.004C194.416 51.804 194.308 51.616 194.164 51.44C194.02 51.256 193.856 51.1 193.672 50.972C193.496 50.836 193.304 50.732 193.096 50.66C192.896 50.58 192.696 50.54 192.496 50.54C192.184 50.54 191.9 50.608 191.644 50.744C191.396 50.872 191.18 51.048 190.996 51.272C190.82 51.488 190.684 51.74 190.588 52.028C190.492 52.308 190.444 52.596 190.444 52.892C190.444 53.204 190.5 53.504 190.612 53.792C190.724 54.072 190.876 54.316 191.068 54.524C191.26 54.732 191.484 54.9 191.74 55.028C192.004 55.148 192.288 55.208 192.592 55.208ZM214.118 56.12C213.63 56.12 213.186 56 212.786 55.76C212.386 55.52 212.07 55.208 211.838 54.824V56H210.902V47.24H211.958V50.984C212.222 50.576 212.546 50.248 212.93 50C213.314 49.752 213.762 49.628 214.274 49.628C214.706 49.628 215.094 49.72 215.438 49.904C215.782 50.088 216.074 50.332 216.314 50.636C216.562 50.932 216.75 51.28 216.878 51.68C217.014 52.072 217.082 52.476 217.082 52.892C217.082 53.332 217.006 53.748 216.854 54.14C216.702 54.532 216.494 54.876 216.23 55.172C215.966 55.46 215.65 55.692 215.282 55.868C214.922 56.036 214.534 56.12 214.118 56.12ZM213.854 55.208C214.166 55.208 214.454 55.144 214.718 55.016C214.982 54.888 215.21 54.716 215.402 54.5C215.594 54.284 215.742 54.04 215.846 53.768C215.95 53.488 216.002 53.196 216.002 52.892C216.002 52.588 215.95 52.296 215.846 52.016C215.75 51.728 215.61 51.476 215.426 51.26C215.25 51.044 215.034 50.872 214.778 50.744C214.53 50.608 214.254 50.54 213.95 50.54C213.726 50.54 213.514 50.58 213.314 50.66C213.114 50.74 212.926 50.848 212.75 50.984C212.582 51.112 212.43 51.264 212.294 51.44C212.166 51.616 212.054 51.804 211.958 52.004V53.816C211.998 54.016 212.082 54.2 212.21 54.368C212.346 54.536 212.502 54.684 212.678 54.812C212.862 54.932 213.054 55.028 213.254 55.1C213.462 55.172 213.662 55.208 213.854 55.208ZM223.736 57.704C223.84 57.72 223.944 57.732 224.048 57.74C224.152 57.748 224.232 57.752 224.288 57.752C224.384 57.752 224.468 57.728 224.54 57.68C224.62 57.64 224.696 57.556 224.768 57.428C224.848 57.3 224.936 57.12 225.032 56.888C225.128 56.664 225.248 56.368 225.392 56L222.74 49.736H223.832L225.968 55.052L227.912 49.736H228.92L225.872 57.644C225.76 57.924 225.572 58.168 225.308 58.376C225.052 58.592 224.696 58.7 224.24 58.7C224.168 58.7 224.092 58.696 224.012 58.688C223.94 58.68 223.848 58.664 223.736 58.64V57.704ZM243.254 56V49.736H244.31V56H243.254ZM243.254 48.56V47.24H244.31V48.56H243.254ZM256.735 56H255.679V52.496C255.679 51.824 255.575 51.336 255.367 51.032C255.167 50.728 254.859 50.576 254.443 50.576C254.227 50.576 254.011 50.62 253.795 50.708C253.579 50.788 253.375 50.9 253.183 51.044C252.991 51.188 252.823 51.36 252.679 51.56C252.535 51.76 252.427 51.98 252.355 52.22V56H251.299V49.736H252.259V51.08C252.507 50.64 252.863 50.288 253.327 50.024C253.799 49.76 254.311 49.628 254.863 49.628C255.223 49.628 255.523 49.696 255.763 49.832C256.003 49.96 256.195 50.144 256.339 50.384C256.483 50.616 256.583 50.892 256.639 51.212C256.703 51.532 256.735 51.88 256.735 52.256V56ZM269.093 56H268.037V52.496C268.037 51.824 267.933 51.336 267.725 51.032C267.525 50.728 267.217 50.576 266.801 50.576C266.585 50.576 266.369 50.62 266.153 50.708C265.937 50.788 265.733 50.9 265.541 51.044C265.349 51.188 265.181 51.36 265.037 51.56C264.893 51.76 264.785 51.98 264.713 52.22V56H263.657V49.736H264.617V51.08C264.865 50.64 265.221 50.288 265.685 50.024C266.157 49.76 266.669 49.628 267.221 49.628C267.581 49.628 267.881 49.696 268.121 49.832C268.361 49.96 268.553 50.144 268.697 50.384C268.841 50.616 268.941 50.892 268.997 51.212C269.061 51.532 269.093 51.88 269.093 52.256V56ZM278.752 56.12C278.28 56.12 277.848 56.032 277.456 55.856C277.072 55.68 276.74 55.444 276.46 55.148C276.188 54.852 275.976 54.508 275.824 54.116C275.672 53.724 275.596 53.312 275.596 52.88C275.596 52.44 275.672 52.024 275.824 51.632C275.984 51.24 276.2 50.896 276.472 50.6C276.752 50.304 277.084 50.068 277.468 49.892C277.86 49.716 278.288 49.628 278.752 49.628C279.216 49.628 279.644 49.716 280.036 49.892C280.428 50.068 280.76 50.304 281.032 50.6C281.312 50.896 281.528 51.24 281.68 51.632C281.84 52.024 281.92 52.44 281.92 52.88C281.92 53.312 281.844 53.724 281.692 54.116C281.54 54.508 281.324 54.852 281.044 55.148C280.764 55.444 280.428 55.68 280.036 55.856C279.652 56.032 279.224 56.12 278.752 56.12ZM276.676 52.892C276.676 53.22 276.728 53.524 276.832 53.804C276.944 54.084 277.092 54.328 277.276 54.536C277.468 54.744 277.688 54.908 277.936 55.028C278.192 55.148 278.464 55.208 278.752 55.208C279.04 55.208 279.308 55.148 279.556 55.028C279.812 54.908 280.036 54.744 280.228 54.536C280.42 54.32 280.568 54.072 280.672 53.792C280.784 53.504 280.84 53.196 280.84 52.868C280.84 52.548 280.784 52.248 280.672 51.968C280.568 51.68 280.42 51.432 280.228 51.224C280.036 51.008 279.812 50.84 279.556 50.72C279.308 50.6 279.04 50.54 278.752 50.54C278.464 50.54 278.192 50.604 277.936 50.732C277.688 50.852 277.468 51.02 277.276 51.236C277.092 51.444 276.944 51.692 276.832 51.98C276.728 52.26 276.676 52.564 276.676 52.892ZM290.08 56L287.608 49.736H288.7L290.68 55.076L292.672 49.736H293.68L291.208 56H290.08ZM301.461 56.12C301.165 56.12 300.889 56.072 300.633 55.976C300.377 55.872 300.153 55.732 299.961 55.556C299.777 55.38 299.629 55.176 299.517 54.944C299.413 54.704 299.361 54.444 299.361 54.164C299.361 53.876 299.425 53.616 299.553 53.384C299.681 53.144 299.861 52.94 300.093 52.772C300.333 52.604 300.613 52.472 300.933 52.376C301.261 52.28 301.617 52.232 302.001 52.232C302.305 52.232 302.613 52.26 302.925 52.316C303.237 52.372 303.513 52.448 303.753 52.544V52.04C303.753 51.528 303.609 51.128 303.321 50.84C303.033 50.544 302.625 50.396 302.097 50.396C301.465 50.396 300.801 50.64 300.105 51.128L299.757 50.444C300.565 49.9 301.377 49.628 302.193 49.628C303.017 49.628 303.657 49.848 304.113 50.288C304.577 50.728 304.809 51.348 304.809 52.148V54.704C304.809 54.952 304.921 55.08 305.145 55.088V56C305.033 56.016 304.941 56.028 304.869 56.036C304.797 56.044 304.721 56.048 304.641 56.048C304.433 56.048 304.265 55.988 304.137 55.868C304.017 55.74 303.945 55.588 303.921 55.412L303.897 54.968C303.617 55.344 303.261 55.632 302.829 55.832C302.405 56.024 301.949 56.12 301.461 56.12ZM301.737 55.328C302.113 55.328 302.461 55.26 302.781 55.124C303.109 54.98 303.357 54.792 303.525 54.56C303.677 54.408 303.753 54.252 303.753 54.092V53.168C303.241 52.968 302.709 52.868 302.157 52.868C301.629 52.868 301.197 52.98 300.861 53.204C300.533 53.428 300.369 53.72 300.369 54.08C300.369 54.256 300.401 54.42 300.465 54.572C300.537 54.724 300.633 54.856 300.753 54.968C300.881 55.08 301.029 55.168 301.197 55.232C301.365 55.296 301.545 55.328 301.737 55.328ZM314.971 55.688C314.907 55.72 314.823 55.76 314.719 55.808C314.615 55.848 314.495 55.892 314.359 55.94C314.231 55.98 314.087 56.012 313.927 56.036C313.775 56.068 313.615 56.084 313.447 56.084C313.063 56.084 312.731 55.98 312.451 55.772C312.171 55.556 312.031 55.224 312.031 54.776V50.564H311.179V49.736H312.031V47.648H313.087V49.736H314.491V50.564H313.087V54.452C313.103 54.684 313.179 54.852 313.315 54.956C313.451 55.06 313.611 55.112 313.795 55.112C314.003 55.112 314.191 55.08 314.359 55.016C314.535 54.944 314.655 54.888 314.719 54.848L314.971 55.688ZM321.229 56V49.736H322.285V56H321.229ZM321.229 48.56V47.24H322.285V48.56H321.229ZM332.011 56.12C331.539 56.12 331.107 56.032 330.715 55.856C330.331 55.68 329.999 55.444 329.719 55.148C329.447 54.852 329.235 54.508 329.083 54.116C328.931 53.724 328.855 53.312 328.855 52.88C328.855 52.44 328.931 52.024 329.083 51.632C329.243 51.24 329.459 50.896 329.731 50.6C330.011 50.304 330.343 50.068 330.727 49.892C331.119 49.716 331.547 49.628 332.011 49.628C332.475 49.628 332.903 49.716 333.295 49.892C333.687 50.068 334.019 50.304 334.291 50.6C334.571 50.896 334.787 51.24 334.939 51.632C335.099 52.024 335.179 52.44 335.179 52.88C335.179 53.312 335.103 53.724 334.951 54.116C334.799 54.508 334.583 54.852 334.303 55.148C334.023 55.444 333.687 55.68 333.295 55.856C332.911 56.032 332.483 56.12 332.011 56.12ZM329.935 52.892C329.935 53.22 329.987 53.524 330.091 53.804C330.203 54.084 330.351 54.328 330.535 54.536C330.727 54.744 330.947 54.908 331.195 55.028C331.451 55.148 331.723 55.208 332.011 55.208C332.299 55.208 332.567 55.148 332.815 55.028C333.071 54.908 333.295 54.744 333.487 54.536C333.679 54.32 333.827 54.072 333.931 53.792C334.043 53.504 334.099 53.196 334.099 52.868C334.099 52.548 334.043 52.248 333.931 51.968C333.827 51.68 333.679 51.432 333.487 51.224C333.295 51.008 333.071 50.84 332.815 50.72C332.567 50.6 332.299 50.54 332.011 50.54C331.723 50.54 331.451 50.604 331.195 50.732C330.947 50.852 330.727 51.02 330.535 51.236C330.351 51.444 330.203 51.692 330.091 51.98C329.987 52.26 329.935 52.564 329.935 52.892ZM347.175 56H346.119V52.496C346.119 51.824 346.015 51.336 345.807 51.032C345.607 50.728 345.299 50.576 344.883 50.576C344.667 50.576 344.451 50.62 344.235 50.708C344.019 50.788 343.815 50.9 343.623 51.044C343.431 51.188 343.263 51.36 343.119 51.56C342.975 51.76 342.867 51.98 342.795 52.22V56H341.739V49.736H342.699V51.08C342.947 50.64 343.303 50.288 343.767 50.024C344.239 49.76 344.751 49.628 345.303 49.628C345.663 49.628 345.963 49.696 346.203 49.832C346.443 49.96 346.635 50.144 346.779 50.384C346.923 50.616 347.023 50.892 347.079 51.212C347.143 51.532 347.175 51.88 347.175 52.256V56Z" fill="white"/>
<path fill-rule="evenodd" clip-rule="evenodd" d="M72 36L36 0L27.3177 8.68231L51.4286 32.7932C52.0314 32.4066 52.7483 32.1823 53.5175 32.1823C55.6569 32.1823 57.3912 33.9166 57.3912 36.056C57.3912 38.1954 55.6569 39.9298 53.5175 39.9298C51.3781 39.9298 49.6438 38.1954 49.6438 36.056C49.6438 35.2868 49.868 34.5699 50.2547 33.9672L26.1438 9.85622L9.47095 26.5291L33.7202 50.7783C34.323 50.3917 35.0399 50.1674 35.8091 50.1674C37.9485 50.1674 39.6828 51.9018 39.6828 54.0411C39.6828 56.1805 37.9485 57.9149 35.8091 57.9149C33.6697 57.9149 31.9354 56.1805 31.9354 54.0411C31.9354 53.2719 32.1596 52.555 32.5463 51.9523L8.29703 27.703L0 36L36 72L72 36ZM27.0695 23.4427C24.9301 23.4427 23.1958 25.177 23.1958 27.3164C23.1958 29.4558 24.9301 31.1902 27.0695 31.1902C27.8388 31.1902 28.5557 30.9659 29.1584 30.5792L52.8833 54.3042L54.0572 53.1303L30.3323 29.4053C30.719 28.8026 30.9432 28.0857 30.9432 27.3164C30.9432 25.177 29.2089 23.4427 27.0695 23.4427ZM25.4003 27.3164C25.4003 26.3945 26.1477 25.6472 27.0695 25.6472C27.9914 25.6472 28.7388 26.3945 28.7388 27.3164C28.7388 28.2383 27.9914 28.9857 27.0695 28.9857C26.1477 28.9857 25.4003 28.2383 25.4003 27.3164ZM53.5175 37.7252C54.4394 37.7252 55.1867 36.9779 55.1867 36.056C55.1867 35.1341 54.4394 34.3868 53.5175 34.3868C52.5956 34.3868 51.8483 35.1341 51.8483 36.056C51.8483 36.9779 52.5956 37.7252 53.5175 37.7252ZM35.8091 55.7103C36.731 55.7103 37.4783 54.963 37.4783 54.0411C37.4783 53.1192 36.731 52.3719 35.8091 52.3719C34.8872 52.3719 34.1399 53.1192 34.1399 54.0411C34.1399 54.963 34.8872 55.7103 35.8091 55.7103Z" fill="white"/>
</svg>
